<svg width="1229" height="706" xmlns="http://www.w3.org/2000/svg"><g><path d="M-49,-72L-130,59L30,91Z" fill="#f9fcff" stroke="#f9fcff"/><path d="M-49,-72L30,91L36,-51Z" fill="#f7f9ff" stroke="#f7f9ff"/><path d="M-49,-72L36,-51L473,-147Z" fill="#e8f1f8" stroke="#e8f1f8"/><path d="M36,-51L30,91L228,90Z" fill="#e9f4fa" stroke="#e9f4fa"/><path d="M36,-51L228,90L318,-71Z" fill="#e4eef6" stroke="#e4eef6"/><path d="M36,-51L318,-71L473,-147Z" fill="#d9e9f2" stroke="#d9e9f2"/><path d="M318,-71L228,90L513,154Z" fill="#c6e2f0" stroke="#c6e2f0"/><path d="M318,-71L513,154L473,-147Z" fill="#bfdbed" stroke="#bfdbed"/><path d="M473,-147L513,154L677,-120Z" fill="#aed1e8" stroke="#aed1e8"/><path d="M473,-147L677,-120L1332,-138Z" fill="#91b8d8" stroke="#91b8d8"/><path d="M677,-120L513,154L666,143Z" fill="#a0cbe4" stroke="#a0cbe4"/><path d="M677,-120L666,143L755,-54Z" fill="#9dc4e0" stroke="#9dc4e0"/><path d="M677,-120L755,-54L962,-48Z" fill="#93bbda" stroke="#93bbda"/><path d="M677,-120L962,-48L1132,-94Z" fill="#89aed2" stroke="#89aed2"/><path d="M677,-120L1132,-94L1332,-138Z" fill="#80a2c9" stroke="#80a2c9"/><path d="M755,-54L666,143L831,42Z" fill="#93bfdd" stroke="#93bfdd"/><path d="M755,-54L831,42L962,-48Z" fill="#8fb6d7" stroke="#8fb6d7"/><path d="M962,-48L831,42L1033,48Z" fill="#86acd1" stroke="#86acd1"/><path d="M962,-48L1033,48L1132,-94Z" fill="#80a2ca" stroke="#80a2ca"/><path d="M1132,-94L1033,48L1120,111Z" fill="#7d9dc6" stroke="#7d9dc6"/><path d="M1132,-94L1120,111L1338,114Z" fill="#7b93bf" stroke="#7b93bf"/><path d="M1132,-94L1338,114L1332,-138Z" fill="#808cbb" stroke="#808cbb"/><path d="M1332,-138L1338,114L1385,591Z" fill="#607cb5" stroke="#607cb5"/><path d="M-130,59L-92,830L-113,215Z" fill="#aad7f6" stroke="#aad7f6"/><path d="M-130,59L-113,215L30,91Z" fill="#f1fdff" stroke="#f1fdff"/><path d="M30,91L-113,215L63,320Z" fill="#d1eeff" stroke="#d1eeff"/><path d="M30,91L63,320L230,292Z" fill="#bde3fa" stroke="#bde3fa"/><path d="M30,91L230,292L228,90Z" fill="#d2edf7" stroke="#d2edf7"/><path d="M228,90L230,292L449,234Z" fill="#afdcf1" stroke="#afdcf1"/><path d="M228,90L449,234L513,154Z" fill="#b0dcee" stroke="#b0dcee"/><path d="M513,154L449,234L596,259Z" fill="#89c8e9" stroke="#89c8e9"/><path d="M513,154L596,259L666,143Z" fill="#8bc6e6" stroke="#8bc6e6"/><path d="M666,143L596,259L762,223Z" fill="#79bbe1" stroke="#79bbe1"/><path d="M666,143L762,223L831,42Z" fill="#88bfdd" stroke="#88bfdd"/><path d="M831,42L762,223L1015,314Z" fill="#6cabd5" stroke="#6cabd5"/><path d="M831,42L1015,314L1033,48Z" fill="#77abcf" stroke="#77abcf"/><path d="M1033,48L1015,314L1120,111Z" fill="#6b9ec9" stroke="#6b9ec9"/><path d="M1120,111L1015,314L1194,278Z" fill="#508cc5" stroke="#508cc5"/><path d="M1120,111L1194,278L1305,207Z" fill="#5d88bf" stroke="#5d88bf"/><path d="M1120,111L1305,207L1338,114Z" fill="#708dbc" stroke="#708dbc"/><path d="M1338,114L1305,207L1319,416Z" fill="#4c75b7" stroke="#4c75b7"/><path d="M1338,114L1319,416L1385,591Z" fill="#295bac" stroke="#295bac"/><path d="M-113,215L-92,830L-69,626Z" fill="#92b0de" stroke="#92b0de"/><path d="M-113,215L-69,626L-64,503Z" fill="#9bc7ed" stroke="#9bc7ed"/><path d="M-113,215L-64,503L63,320Z" fill="#acd8f8" stroke="#acd8f8"/><path d="M63,320L-64,503L124,433Z" fill="#92c6ef" stroke="#92c6ef"/><path d="M63,320L124,433L230,292Z" fill="#99cdf1" stroke="#99cdf1"/><path d="M230,292L124,433L254,415Z" fill="#8bc4eb" stroke="#8bc4eb"/><path d="M230,292L254,415L449,234Z" fill="#8cc8ed" stroke="#8cc8ed"/><path d="M449,234L254,415L455,471Z" fill="#71b7e5" stroke="#71b7e5"/><path d="M449,234L455,471L596,259Z" fill="#6bb7e6" stroke="#6bb7e6"/><path d="M596,259L455,471L591,494Z" fill="#50a3da" stroke="#50a3da"/><path d="M596,259L591,494L854,394Z" fill="#469bd7" stroke="#469bd7"/><path d="M596,259L854,394L762,223Z" fill="#56a7dd" stroke="#56a7dd"/><path d="M762,223L854,394L1015,314Z" fill="#4696d2" stroke="#4696d2"/><path d="M1015,314L854,394L995,423Z" fill="#2f82c6" stroke="#2f82c6"/><path d="M1015,314L995,423L1182,435Z" fill="#2574bd" stroke="#2574bd"/><path d="M1015,314L1182,435L1194,278Z" fill="#3177bd" stroke="#3177bd"/><path d="M1194,278L1182,435L1319,416Z" fill="#2966b3" stroke="#2966b3"/><path d="M1194,278L1319,416L1305,207Z" fill="#3b70b8" stroke="#3b70b8"/><path d="M-64,503L-69,626L118,597Z" fill="#89a8db" stroke="#89a8db"/><path d="M-64,503L118,597L124,433Z" fill="#88b1e1" stroke="#88b1e1"/><path d="M124,433L118,597L254,415Z" fill="#7fb2e0" stroke="#7fb2e0"/><path d="M254,415L118,597L297,675Z" fill="#739ed2" stroke="#739ed2"/><path d="M254,415L297,675L455,471Z" fill="#659ed4" stroke="#659ed4"/><path d="M455,471L297,675L494,592Z" fill="#538bc9" stroke="#538bc9"/><path d="M455,471L494,592L591,494Z" fill="#488fce" stroke="#488fce"/><path d="M591,494L494,592L642,609Z" fill="#3d80c4" stroke="#3d80c4"/><path d="M591,494L642,609L854,394Z" fill="#3582c7" stroke="#3582c7"/><path d="M854,394L642,609L817,670Z" fill="#286fba" stroke="#286fba"/><path d="M854,394L817,670L995,651Z" fill="#1d61b1" stroke="#1d61b1"/><path d="M854,394L995,651L995,423Z" fill="#1f6cb8" stroke="#1f6cb8"/><path d="M995,423L995,651L1164,622Z" fill="#1252a7" stroke="#1252a7"/><path d="M995,423L1164,622L1182,435Z" fill="#185bac" stroke="#185bac"/><path d="M1182,435L1164,622L1385,591Z" fill="#13429c" stroke="#13429c"/><path d="M1182,435L1385,591L1319,416Z" fill="#194ba2" stroke="#194ba2"/><path d="M-69,626L-92,830L73,825Z" fill="#7c82c2" stroke="#7c82c2"/><path d="M-69,626L73,825L118,597Z" fill="#7c8fca" stroke="#7c8fca"/><path d="M118,597L73,825L247,748Z" fill="#6d80c0" stroke="#6d80c0"/><path d="M118,597L247,748L297,675Z" fill="#6a87c3" stroke="#6a87c3"/><path d="M297,675L247,748L437,838Z" fill="#536db4" stroke="#536db4"/><path d="M297,675L437,838L494,592Z" fill="#4a72b8" stroke="#4a72b8"/><path d="M494,592L437,838L642,609Z" fill="#3a6cb7" stroke="#3a6cb7"/><path d="M642,609L437,838L669,856Z" fill="#2c55a8" stroke="#2c55a8"/><path d="M642,609L669,856L817,670Z" fill="#2255a9" stroke="#2255a9"/><path d="M817,670L669,856L823,794Z" fill="#17439d" stroke="#17439d"/><path d="M817,670L823,794L995,651Z" fill="#13469f" stroke="#13469f"/><path d="M995,651L823,794L932,845Z" fill="#0b3694" stroke="#0b3694"/><path d="M995,651L932,845L1221,830Z" fill="#01268a" stroke="#01268a"/><path d="M995,651L1221,830L1164,622Z" fill="#072e8f" stroke="#072e8f"/><path d="M1164,622L1221,830L1385,591Z" fill="#082589" stroke="#082589"/><path d="M1385,591L1221,830L1302,853Z" fill="#02107b" stroke="#02107b"/><path d="M-92,830L669,856L437,838Z" fill="#4f64a8" stroke="#4f64a8"/><path d="M-92,830L437,838L73,825Z" fill="#6a72b1" stroke="#6a72b1"/><path d="M73,825L437,838L247,748Z" fill="#5e6bb0" stroke="#5e6bb0"/><path d="M669,856L1302,853L932,845Z" fill="#062a85" stroke="#062a85"/><path d="M669,856L932,845L823,794Z" fill="#133a92" stroke="#133a92"/><path d="M932,845L1302,853L1221,830Z" fill="#001879" stroke="#001879"/></g></svg>