<svg width="1229" height="706" xmlns="http://www.w3.org/2000/svg"><g><path d="M-25,-65L-69,186L-36,47Z" fill="#f7fcff" stroke="#f7fcff"/><path d="M-25,-65L-36,47L27,-72Z" fill="#f8faff" stroke="#f8faff"/><path d="M27,-72L-36,47L71,78Z" fill="#f4f8fe" stroke="#f4f8fe"/><path d="M27,-72L71,78L165,22Z" fill="#edf4fc" stroke="#edf4fc"/><path d="M27,-72L165,22L156,-59Z" fill="#ecf2fb" stroke="#ecf2fb"/><path d="M27,-72L156,-59L402,-90Z" fill="#e4eef8" stroke="#e4eef8"/><path d="M156,-59L165,22L275,-29Z" fill="#e3eef7" stroke="#e3eef7"/><path d="M156,-59L275,-29L402,-90Z" fill="#dceaf5" stroke="#dceaf5"/><path d="M275,-29L165,22L251,39Z" fill="#dfecf6" stroke="#dfecf6"/><path d="M275,-29L251,39L368,27Z" fill="#d9e9f4" stroke="#d9e9f4"/><path d="M275,-29L368,27L402,-90Z" fill="#d5e7f2" stroke="#d5e7f2"/><path d="M402,-90L368,27L495,-50Z" fill="#cde4f0" stroke="#cde4f0"/><path d="M402,-90L495,-50L614,-68Z" fill="#c3deee" stroke="#c3deee"/><path d="M402,-90L614,-68L918,-81Z" fill="#b1d4e9" stroke="#b1d4e9"/><path d="M402,-90L918,-81L1408,-74Z" fill="#8fb6d7" stroke="#8fb6d7"/><path d="M495,-50L368,27L520,73Z" fill="#c7e1ef" stroke="#c7e1ef"/><path d="M495,-50L520,73L592,54Z" fill="#bddced" stroke="#bddced"/><path d="M495,-50L592,54L614,-68Z" fill="#bbdaec" stroke="#bbdaec"/><path d="M614,-68L592,54L744,67Z" fill="#afd3e9" stroke="#afd3e9"/><path d="M614,-68L744,67L737,-66Z" fill="#a9cee6" stroke="#a9cee6"/><path d="M614,-68L737,-66L918,-81Z" fill="#a1c8e2" stroke="#a1c8e2"/><path d="M737,-66L744,67L795,-21Z" fill="#a1c7e2" stroke="#a1c7e2"/><path d="M737,-66L795,-21L918,-81Z" fill="#99c1de" stroke="#99c1de"/><path d="M795,-21L744,67L798,64Z" fill="#9bc5e1" stroke="#9bc5e1"/><path d="M795,-21L798,64L937,48Z" fill="#93bedc" stroke="#93bedc"/><path d="M795,-21L937,48L918,-81Z" fill="#92b9d9" stroke="#92b9d9"/><path d="M918,-81L937,48L1053,-64Z" fill="#89afd2" stroke="#89afd2"/><path d="M918,-81L1053,-64L1408,-74Z" fill="#809cc6" stroke="#809cc6"/><path d="M1053,-64L937,48L1046,63Z" fill="#83aacf" stroke="#83aacf"/><path d="M1053,-64L1046,63L1126,-38Z" fill="#80a2ca" stroke="#80a2ca"/><path d="M1053,-64L1126,-38L1290,-55Z" fill="#8098c3" stroke="#8098c3"/><path d="M1053,-64L1290,-55L1408,-74Z" fill="#808dbc" stroke="#808dbc"/><path d="M1126,-38L1046,63L1167,37Z" fill="#7e9ec7" stroke="#7e9ec7"/><path d="M1126,-38L1167,37L1290,-55Z" fill="#8094c0" stroke="#8094c0"/><path d="M1290,-55L1167,37L1233,83Z" fill="#7e90bd" stroke="#7e90bd"/><path d="M1290,-55L1233,83L1376,73Z" fill="#7d87b8" stroke="#7d87b8"/><path d="M1290,-55L1376,73L1408,-74Z" fill="#8080b3" stroke="#8080b3"/><path d="M1408,-74L1376,73L1381,247Z" fill="#7980b0" stroke="#7980b0"/><path d="M1408,-74L1381,247L1405,501Z" fill="#6079b0" stroke="#6079b0"/><path d="M-36,47L-69,186L25,174Z" fill="#edfaff" stroke="#edfaff"/><path d="M-36,47L25,174L71,78Z" fill="#edf8fe" stroke="#edf8fe"/><path d="M71,78L25,174L179,197Z" fill="#def2fc" stroke="#def2fc"/><path d="M71,78L179,197L165,22Z" fill="#e1f1fa" stroke="#e1f1fa"/><path d="M165,22L179,197L251,39Z" fill="#dceef8" stroke="#dceef8"/><path d="M251,39L179,197L292,156Z" fill="#d3ebf6" stroke="#d3ebf6"/><path d="M251,39L292,156L368,27Z" fill="#d3e9f4" stroke="#d3e9f4"/><path d="M368,27L292,156L408,188Z" fill="#c9e6f2" stroke="#c9e6f2"/><path d="M368,27L408,188L484,166Z" fill="#c2e4f0" stroke="#c2e4f0"/><path d="M368,27L484,166L520,73Z" fill="#c2e1ef" stroke="#c2e1ef"/><path d="M520,73L484,166L625,162Z" fill="#b1dbed" stroke="#b1dbed"/><path d="M520,73L625,162L592,54Z" fill="#b2d9ec" stroke="#b2d9ec"/><path d="M592,54L625,162L720,146Z" fill="#a7d3e9" stroke="#a7d3e9"/><path d="M592,54L720,146L744,67Z" fill="#a4cfe6" stroke="#a4cfe6"/><path d="M744,67L720,146L798,64Z" fill="#9ac8e2" stroke="#9ac8e2"/><path d="M798,64L720,146L851,180Z" fill="#90c3e0" stroke="#90c3e0"/><path d="M798,64L851,180L937,48Z" fill="#8cbcdb" stroke="#8cbcdb"/><path d="M937,48L851,180L947,171Z" fill="#83b5d7" stroke="#83b5d7"/><path d="M937,48L947,171L1035,139Z" fill="#7faed2" stroke="#7faed2"/><path d="M937,48L1035,139L1046,63Z" fill="#7faacf" stroke="#7faacf"/><path d="M1046,63L1035,139L1160,150Z" fill="#76a2c9" stroke="#76a2c9"/><path d="M1046,63L1160,150L1167,37Z" fill="#799cc6" stroke="#799cc6"/><path d="M1167,37L1160,150L1233,83Z" fill="#7895c1" stroke="#7895c1"/><path d="M1233,83L1160,150L1247,181Z" fill="#7291bf" stroke="#7291bf"/><path d="M1233,83L1247,181L1363,172Z" fill="#7188b9" stroke="#7188b9"/><path d="M1233,83L1363,172L1376,73Z" fill="#7784b6" stroke="#7784b6"/><path d="M1376,73L1363,172L1381,247Z" fill="#6d7db2" stroke="#6d7db2"/><path d="M-69,186L-71,255L25,174Z" fill="#e0f6ff" stroke="#e0f6ff"/><path d="M25,174L-71,255L45,280Z" fill="#d5f2ff" stroke="#d5f2ff"/><path d="M25,174L45,280L136,279Z" fill="#ccedfd" stroke="#ccedfd"/><path d="M25,174L136,279L179,197Z" fill="#ceedfb" stroke="#ceedfb"/><path d="M179,197L136,279L252,271Z" fill="#bfe5f8" stroke="#bfe5f8"/><path d="M179,197L252,271L292,156Z" fill="#c3e6f6" stroke="#c3e6f6"/><path d="M292,156L252,271L405,278Z" fill="#b6e2f3" stroke="#b6e2f3"/><path d="M292,156L405,278L408,188Z" fill="#b7e1f2" stroke="#b7e1f2"/><path d="M408,188L405,278L493,274Z" fill="#a7daf0" stroke="#a7daf0"/><path d="M408,188L493,274L484,166Z" fill="#acdcef" stroke="#acdcef"/><path d="M484,166L493,274L595,285Z" fill="#9ed5ed" stroke="#9ed5ed"/><path d="M484,166L595,285L625,162Z" fill="#a0d5ec" stroke="#a0d5ec"/><path d="M625,162L595,285L697,266Z" fill="#90cde9" stroke="#90cde9"/><path d="M625,162L697,266L720,146Z" fill="#93cbe7" stroke="#93cbe7"/><path d="M720,146L697,266L851,180Z" fill="#88c3e2" stroke="#88c3e2"/><path d="M851,180L697,266L843,270Z" fill="#79bce0" stroke="#79bce0"/><path d="M851,180L843,270L911,261Z" fill="#71b4da" stroke="#71b4da"/><path d="M851,180L911,261L947,171Z" fill="#75b2d8" stroke="#75b2d8"/><path d="M947,171L911,261L1067,275Z" fill="#67a7d2" stroke="#67a7d2"/><path d="M947,171L1067,275L1035,139Z" fill="#6ba5ce" stroke="#6ba5ce"/><path d="M1035,139L1067,275L1161,240Z" fill="#629bc9" stroke="#629bc9"/><path d="M1035,139L1161,240L1160,150Z" fill="#6a99c6" stroke="#6a99c6"/><path d="M1160,150L1161,240L1247,181Z" fill="#6790c0" stroke="#6790c0"/><path d="M1247,181L1161,240L1293,256Z" fill="#6089bd" stroke="#6089bd"/><path d="M1247,181L1293,256L1363,172Z" fill="#6582b7" stroke="#6582b7"/><path d="M1363,172L1293,256L1381,247Z" fill="#607bb4" stroke="#607bb4"/><path d="M-71,255L-74,479L-58,366Z" fill="#bae2fe" stroke="#bae2fe"/><path d="M-71,255L-58,366L45,280Z" fill="#c8eaff" stroke="#c8eaff"/><path d="M45,280L-58,366L47,374Z" fill="#bae3ff" stroke="#bae3ff"/><path d="M45,280L47,374L136,279Z" fill="#bbe3fc" stroke="#bbe3fc"/><path d="M136,279L47,374L195,376Z" fill="#addbfa" stroke="#addbfa"/><path d="M136,279L195,376L252,271Z" fill="#afdcf8" stroke="#afdcf8"/><path d="M252,271L195,376L287,382Z" fill="#a1d5f6" stroke="#a1d5f6"/><path d="M252,271L287,382L405,278Z" fill="#a3d7f3" stroke="#a3d7f3"/><path d="M405,278L287,382L397,387Z" fill="#94cff2" stroke="#94cff2"/><path d="M405,278L397,387L469,362Z" fill="#90cdf0" stroke="#90cdf0"/><path d="M405,278L469,362L493,274Z" fill="#96d1ef" stroke="#96d1ef"/><path d="M493,274L469,362L577,376Z" fill="#86c8ed" stroke="#86c8ed"/><path d="M493,274L577,376L595,285Z" fill="#87c9ec" stroke="#87c9ec"/><path d="M595,285L577,376L723,395Z" fill="#73bdea" stroke="#73bdea"/><path d="M595,285L723,395L697,266Z" fill="#77bee7" stroke="#77bee7"/><path d="M697,266L723,395L802,386Z" fill="#64b2e3" stroke="#64b2e3"/><path d="M697,266L802,386L843,270Z" fill="#6ab3e1" stroke="#6ab3e1"/><path d="M843,270L802,386L906,413Z" fill="#54a5db" stroke="#54a5db"/><path d="M843,270L906,413L911,261Z" fill="#5ca6d9" stroke="#5ca6d9"/><path d="M911,261L906,413L1033,360Z" fill="#4d9ad4" stroke="#4d9ad4"/><path d="M911,261L1033,360L1067,275Z" fill="#549bcf" stroke="#549bcf"/><path d="M1067,275L1033,360L1177,364Z" fill="#458bc8" stroke="#458bc8"/><path d="M1067,275L1177,364L1161,240Z" fill="#4f8bc5" stroke="#4f8bc5"/><path d="M1161,240L1177,364L1293,256Z" fill="#5183bf" stroke="#5183bf"/><path d="M1293,256L1177,364L1244,396Z" fill="#4379bd" stroke="#4379bd"/><path d="M1293,256L1244,396L1357,392Z" fill="#4170b8" stroke="#4170b8"/><path d="M1293,256L1357,392L1381,247Z" fill="#4e72b4" stroke="#4e72b4"/><path d="M1381,247L1357,392L1405,501Z" fill="#3862ae" stroke="#3862ae"/><path d="M-58,366L-74,479L47,374Z" fill="#abd7f8" stroke="#abd7f8"/><path d="M47,374L-74,479L42,525Z" fill="#98c9f2" stroke="#98c9f2"/><path d="M47,374L42,525L178,500Z" fill="#8dc3ed" stroke="#8dc3ed"/><path d="M47,374L178,500L195,376Z" fill="#97cbf2" stroke="#97cbf2"/><path d="M195,376L178,500L282,511Z" fill="#81bde9" stroke="#81bde9"/><path d="M195,376L282,511L287,382Z" fill="#89c4ed" stroke="#89c4ed"/><path d="M287,382L282,511L397,387Z" fill="#82c0ea" stroke="#82c0ea"/><path d="M397,387L282,511L383,527Z" fill="#71b4e3" stroke="#71b4e3"/><path d="M397,387L383,527L497,494Z" fill="#6bb2e1" stroke="#6bb2e1"/><path d="M397,387L497,494L469,362Z" fill="#77bce7" stroke="#77bce7"/><path d="M469,362L497,494L577,376Z" fill="#71b9e6" stroke="#71b9e6"/><path d="M577,376L497,494L581,511Z" fill="#5eacdf" stroke="#5eacdf"/><path d="M577,376L581,511L691,493Z" fill="#55a7dd" stroke="#55a7dd"/><path d="M577,376L691,493L723,395Z" fill="#5aaadf" stroke="#5aaadf"/><path d="M723,395L691,493L841,498Z" fill="#4298d4" stroke="#4298d4"/><path d="M723,395L841,498L802,386Z" fill="#479cd7" stroke="#479cd7"/><path d="M802,386L841,498L906,413Z" fill="#3e94d2" stroke="#3e94d2"/><path d="M906,413L841,498L914,530Z" fill="#2e84c8" stroke="#2e84c8"/><path d="M906,413L914,530L1024,489Z" fill="#287ec4" stroke="#287ec4"/><path d="M906,413L1024,489L1033,360Z" fill="#3386c8" stroke="#3386c8"/><path d="M1033,360L1024,489L1133,521Z" fill="#2175be" stroke="#2175be"/><path d="M1033,360L1133,521L1177,364Z" fill="#2e78be" stroke="#2e78be"/><path d="M1177,364L1133,521L1244,396Z" fill="#2a6db7" stroke="#2a6db7"/><path d="M1244,396L1133,521L1262,525Z" fill="#1c5dae" stroke="#1c5dae"/><path d="M1244,396L1262,525L1357,392Z" fill="#275eae" stroke="#275eae"/><path d="M1357,392L1262,525L1405,501Z" fill="#1d50a5" stroke="#1d50a5"/><path d="M-74,479L-72,824L-49,607Z" fill="#8ba2d5" stroke="#8ba2d5"/><path d="M-74,479L-49,607L42,525Z" fill="#91b8e5" stroke="#91b8e5"/><path d="M42,525L-49,607L84,622Z" fill="#87a9dc" stroke="#87a9dc"/><path d="M42,525L84,622L178,588Z" fill="#80a6da" stroke="#80a6da"/><path d="M42,525L178,588L178,500Z" fill="#81aee0" stroke="#81aee0"/><path d="M178,500L178,588L282,511Z" fill="#79abdd" stroke="#79abdd"/><path d="M282,511L178,588L289,582Z" fill="#73a3d8" stroke="#73a3d8"/><path d="M282,511L289,582L383,527Z" fill="#6ea5d9" stroke="#6ea5d9"/><path d="M383,527L289,582L382,609Z" fill="#689cd2" stroke="#689cd2"/><path d="M383,527L382,609L514,582Z" fill="#6098d0" stroke="#6098d0"/><path d="M383,527L514,582L497,494Z" fill="#5f9fd5" stroke="#5f9fd5"/><path d="M497,494L514,582L581,511Z" fill="#589cd5" stroke="#589cd5"/><path d="M581,511L514,582L614,596Z" fill="#4f91cd" stroke="#4f91cd"/><path d="M581,511L614,596L691,493Z" fill="#4b94d0" stroke="#4b94d0"/><path d="M691,493L614,596L681,596Z" fill="#4389ca" stroke="#4389ca"/><path d="M691,493L681,596L797,594Z" fill="#3a83c6" stroke="#3a83c6"/><path d="M691,493L797,594L841,498Z" fill="#3685c8" stroke="#3685c8"/><path d="M841,498L797,594L914,530Z" fill="#2c7ac1" stroke="#2c7ac1"/><path d="M914,530L797,594L945,636Z" fill="#246ab7" stroke="#246ab7"/><path d="M914,530L945,636L1024,489Z" fill="#2069b6" stroke="#2069b6"/><path d="M1024,489L945,636L1078,601Z" fill="#185dae" stroke="#185dae"/><path d="M1024,489L1078,601L1133,521Z" fill="#175faf" stroke="#175faf"/><path d="M1133,521L1078,601L1184,581Z" fill="#1451a6" stroke="#1451a6"/><path d="M1133,521L1184,581L1262,525Z" fill="#1650a5" stroke="#1650a5"/><path d="M1262,525L1184,581L1293,570Z" fill="#15469e" stroke="#15469e"/><path d="M1262,525L1293,570L1405,501Z" fill="#17439d" stroke="#17439d"/><path d="M1405,501L1293,570L1364,614Z" fill="#143895" stroke="#143895"/><path d="M1405,501L1364,614L1392,834Z" fill="#0c2184" stroke="#0c2184"/><path d="M-49,607L-72,824L-26,745Z" fill="#818ac6" stroke="#818ac6"/><path d="M-49,607L-26,745L21,703Z" fill="#8293cd" stroke="#8293cd"/><path d="M-49,607L21,703L84,622Z" fill="#829bd3" stroke="#829bd3"/><path d="M84,622L21,703L183,744Z" fill="#768bc8" stroke="#768bc8"/><path d="M84,622L183,744L178,588Z" fill="#7491cc" stroke="#7491cc"/><path d="M178,588L183,744L255,710Z" fill="#6c87c5" stroke="#6c87c5"/><path d="M178,588L255,710L289,582Z" fill="#6e93cd" stroke="#6e93cd"/><path d="M289,582L255,710L386,691Z" fill="#6387c5" stroke="#6387c5"/><path d="M289,582L386,691L382,609Z" fill="#628ec9" stroke="#628ec9"/><path d="M382,609L386,691L514,582Z" fill="#5b8ac7" stroke="#5b8ac7"/><path d="M514,582L386,691L506,724Z" fill="#527ebf" stroke="#527ebf"/><path d="M514,582L506,724L614,596Z" fill="#4b81c3" stroke="#4b81c3"/><path d="M614,596L506,724L636,690Z" fill="#4375bc" stroke="#4375bc"/><path d="M614,596L636,690L681,596Z" fill="#3f7ac0" stroke="#3f7ac0"/><path d="M681,596L636,690L689,694Z" fill="#396fb9" stroke="#396fb9"/><path d="M681,596L689,694L797,594Z" fill="#3472bb" stroke="#3472bb"/><path d="M797,594L689,694L828,715Z" fill="#2962b2" stroke="#2962b2"/><path d="M797,594L828,715L917,702Z" fill="#1f59ac" stroke="#1f59ac"/><path d="M797,594L917,702L945,636Z" fill="#1e5bad" stroke="#1e5bad"/><path d="M945,636L917,702L1031,695Z" fill="#1349a1" stroke="#1349a1"/><path d="M945,636L1031,695L1078,601Z" fill="#114ba3" stroke="#114ba3"/><path d="M1078,601L1031,695L1172,736Z" fill="#093a97" stroke="#093a97"/><path d="M1078,601L1172,736L1184,581Z" fill="#0d3d99" stroke="#0d3d99"/><path d="M1184,581L1172,736L1278,706Z" fill="#092d8e" stroke="#092d8e"/><path d="M1184,581L1278,706L1293,570Z" fill="#0f3694" stroke="#0f3694"/><path d="M1293,570L1278,706L1364,614Z" fill="#0e2c8d" stroke="#0e2c8d"/><path d="M1364,614L1278,706L1355,713Z" fill="#091d83" stroke="#091d83"/><path d="M1364,614L1355,713L1392,834Z" fill="#050f79" stroke="#050f79"/><path d="M-26,745L-72,824L62,810Z" fill="#797abb" stroke="#797abb"/><path d="M-26,745L62,810L21,703Z" fill="#7780c1" stroke="#7780c1"/><path d="M21,703L62,810L183,744Z" fill="#707cbe" stroke="#707cbe"/><path d="M183,744L62,810L193,813Z" fill="#6971b6" stroke="#6971b6"/><path d="M183,744L193,813L241,827Z" fill="#636eb3" stroke="#636eb3"/><path d="M183,744L241,827L255,710Z" fill="#6272b8" stroke="#6272b8"/><path d="M255,710L241,827L417,818Z" fill="#5a6ab1" stroke="#5a6ab1"/><path d="M255,710L417,818L386,691Z" fill="#5772b7" stroke="#5772b7"/><path d="M386,691L417,818L506,724Z" fill="#4e6cb3" stroke="#4e6cb3"/><path d="M506,724L417,818L491,834Z" fill="#4861aa" stroke="#4861aa"/><path d="M506,724L491,834L628,850Z" fill="#3f5ca7" stroke="#3f5ca7"/><path d="M506,724L628,850L636,690Z" fill="#3a5fad" stroke="#3a5fad"/><path d="M636,690L628,850L680,798Z" fill="#3154a7" stroke="#3154a7"/><path d="M636,690L680,798L689,694Z" fill="#325eae" stroke="#325eae"/><path d="M689,694L680,798L828,715Z" fill="#2856a9" stroke="#2856a9"/><path d="M828,715L680,798L844,799Z" fill="#1e48a0" stroke="#1e48a0"/><path d="M828,715L844,799L917,702Z" fill="#17479f" stroke="#17479f"/><path d="M917,702L844,799L946,859Z" fill="#103794" stroke="#103794"/><path d="M917,702L946,859L1010,852Z" fill="#0b318d" stroke="#0b318d"/><path d="M917,702L1010,852L1031,695Z" fill="#0a3594" stroke="#0a3594"/><path d="M1031,695L1010,852L1172,736Z" fill="#01288b" stroke="#01288b"/><path d="M1172,736L1010,852L1164,849Z" fill="#001e7f" stroke="#001e7f"/><path d="M1172,736L1164,849L1296,822Z" fill="#001279" stroke="#001279"/><path d="M1172,736L1296,822L1278,706Z" fill="#01147e" stroke="#01147e"/><path d="M1278,706L1296,822L1355,713Z" fill="#020f7a" stroke="#020f7a"/><path d="M1355,713L1296,822L1392,834Z" fill="#000270" stroke="#000270"/><path d="M-72,824L628,850L241,827Z" fill="#5d6baa" stroke="#5d6baa"/><path d="M-72,824L241,827L62,810Z" fill="#7075b3" stroke="#7075b3"/><path d="M62,810L241,827L193,813Z" fill="#6770b0" stroke="#6770b0"/><path d="M241,827L628,850L491,834Z" fill="#4a62a4" stroke="#4a62a4"/><path d="M241,827L491,834L417,818Z" fill="#5266a7" stroke="#5266a7"/><path d="M628,850L946,859L844,799Z" fill="#1b4394" stroke="#1b4394"/><path d="M628,850L844,799L680,798Z" fill="#274c9c" stroke="#274c9c"/><path d="M946,859L1164,849L1010,852Z" fill="#03277e" stroke="#03277e"/><path d="M1164,849L1392,834L1296,822Z" fill="#000a6d" stroke="#000a6d"/></g></svg>